<svg id="Layer_1" xmlns="http://www.w3.org/2000/svg" viewBox="0 0 512 342"><style>.st0{fill:#9fc9ec}.st1{opacity:.25;fill:#5d7085;enable-background:new}.st2{fill:#f5bc67}.st3{fill:#628fc2}.st4{opacity:.29;fill:#32648e}.st5{fill:#4f5057}.st6{opacity:.5}.st7{fill:#2f70aa}.st8{fill:#c3e4d9}.st9{fill:#5d7084}.st10{fill:#33638f}.st11{fill:#a3a3a4}.st12{opacity:.21}.st12,.st13{fill:#fff}.st14{fill:#edf3fa}.st15{fill:#4d5057}.st16{fill:#f7cb7f}.st17{fill:#f6bc68}.st18{opacity:.28;fill:#fff}.st19{fill:#f16766}</style><title>cyborg</title><path class="st0" d="M0 0h512v342H0z"/><ellipse class="st1" cx="256" cy="293.4" rx="56.7" ry="8.1"/><path class="st2" d="M298.2 141.1V86.3c-2.3-20.4-19-36-38.6-36.9-21-1-40.1 15.1-42.6 36.9v54.8h81.2z"/><path id="XMLID_2180_" class="st3" d="M168.5 235.2c4.1-7.9 8.5-17.7 12.1-29.5 2.6-8.5 5.1-19 6.5-31.2 1-8-4.4-15.2-11.5-16.4-6-1-12.2 2.3-15.2 8.2-2.3 6.5-5.8 19.1-4 35 1.9 16.3 8.3 28 12.1 33.9z"/><path id="XMLID_2179_" class="st4" d="M160.9 170.2c2.5-5.1 5.2-4.2 2.8.6-2 5.6-5 16.5-3.4 30.2 1.3 11.8 6 24.9 7.6 28.5-3.3-5-8.8-15.1-10.4-29.2-1.6-13.6 1.4-24.5 3.4-30.1z"/><path id="XMLID_2178_" class="st3" d="M342.7 235.2c-4.1-7.9-8.5-17.7-12.1-29.5-2.6-8.5-5.1-19-6.5-31.2-1-8 4.4-15.2 11.5-16.4 6-1 12.2 2.3 15.2 8.2 2.3 6.5 5.8 19.1 4 35-1.8 16.3-8.3 28-12.1 33.9z"/><path id="XMLID_2177_" class="st4" d="M350.3 170.2c-2.5-5.1-5.2-4.2-2.8.6 2 5.6 5 16.5 3.4 30.2-1.3 11.8-6 24.9-7.6 28.5 3.3-5 8.8-15.1 10.4-29.2 1.6-13.6-1.4-24.5-3.4-30.1z"/><path id="XMLID_2176_" class="st3" d="M331.4 162.2c-.1-18.6-.7-36.6-1.6-53.8 0-6.5-2.6-12.3-6.9-16.6-.8-.8-1.5-1.4-2.3-2-.2-.4-.3-.9-.5-1.3-2.6-7-.2-13.1-2.7-16-3.4.1-14.8 1.8-20.5 4.6-3.6 1.8-6.4 3.9-8.4 5.8-6.4-.6-13-1-20-1.2-4.1-1-8.5-2.4-13.2-4.4-9.3-3.9-16.4-8.6-21.3-12.4L251.3 80c-2.8-.9-5.8-1.9-8.9-3.2-9.3-3.9-16.4-8.6-21.3-12.4l19.8 17.3c-4.9.2-9.6.5-14.1.9-2.1-2.1-5.1-4.6-9.3-6.7-5.8-2.8-17.1-4.6-20.5-4.6-2.5 2.9-.1 9-2.7 16l-.3.9c-1.7 1-3.2 2.2-4.6 3.6-6.7 6.7-6.9 15-6.9 16.6-1.5 17.7-2.5 36.7-2.6 57-.1 22.9.9 44.4 2.6 64 0 6.5 2.6 12.3 6.9 16.6 6.7 6.7 15 6.9 16.6 6.9 16.1 1.7 34 2.7 53.4 2.6 16.9-.1 32.7-1.1 47-2.6 6.5 0 12.3-2.6 16.6-6.9 6.7-6.7 6.9-15 6.9-16.6 1-21.3 1.6-43.7 1.5-67.2z"/><path id="XMLID_2175_" class="st5" d="M255 284.9c-1-1-2.1-1.6-3.3-2.1v-29h-4.1V281c-3.7-2-8.7-1.3-12 2.2-4 4.1-.6 15.9-.5 14 0-1.1 1.8-2.6 4.1-4.3.1 4.1 1.4 7.9 1.4 6.8 0-3.8 18.1-11.1 14.4-14.8z"/><path id="XMLID_2174_" class="st5" d="M257.2 285.6c1-1 2.1-1.6 3.3-2.1v-29h4.1v27.1c3.7-2 8.7-1.3 12 2.2 4 4.1.6 15.9.5 14 0-1.1-1.8-2.6-4.1-4.3-.1 4.1-1.4 7.9-1.4 6.8 0-3.7-18.1-11.1-14.4-14.7z"/><g id="XMLID_2167_" class="st6"><path id="XMLID_2169_" class="st7" d="M185 97.6c-2.6 5.1-2.7 9.8-2.7 10.9-1.5 17.7-2.5 36.7-2.6 57-.1 22.9.9 44.4 2.6 64 0 4 1 7.7 2.7 11V97.6z"/><path id="XMLID_2168_" class="st7" d="M331.4 162.3c-.1-18.6-.7-36.6-1.6-53.8 0-3.7-.9-7.2-2.4-10.3v141.6c2.3-4.8 2.4-9.2 2.4-10.3 1.1-21.2 1.7-43.7 1.6-67.2z"/></g><path id="XMLID_2164_" class="st8" d="M255.9 192.8c-26.4 0-49.8 44.4-44.1 60.6.1.2.1.4.2.5 13.8 1.2 28.8 1.9 44.8 1.8h.9c15-.1 29-.9 41.9-2.1.1-.3.2-.5.3-.8 5.8-16.1-17.5-60-44-60z"/><path id="XMLID_2163_" class="st3" d="M236.9 229.1c-3.3 0-5.7-1.3-6.9-2.1-.5-.4-.7-1.1-.3-1.6.4-.5 1.1-.7 1.6-.3 1 .7 3 1.8 5.8 1.7 2.6 0 4.5-1.1 5.5-1.7.5-.4 1.2-.2 1.6.3.4.5.2 1.2-.3 1.6-1.1.8-3.5 2.1-6.7 2.1h-.3z"/><path id="XMLID_2162_" class="st3" d="M271.2 223.3c-3.3 0-5.7-1.3-6.9-2.1-.5-.4-.7-1.1-.3-1.6.4-.5 1.1-.7 1.6-.3 1 .7 3 1.8 5.8 1.7 2.6 0 4.5-1.1 5.5-1.7.5-.4 1.2-.2 1.6.3.4.5.2 1.2-.3 1.6-1.1.8-3.5 2.1-6.7 2.1h-.3z"/><path id="XMLID_2161_" class="st3" d="M258.4 238c-3.3 0-5.7-1.3-6.9-2.1-.5-.4-.7-1.1-.3-1.6.4-.5 1.1-.7 1.6-.3 1 .7 3 1.8 5.8 1.7 2.6 0 4.5-1.1 5.5-1.7.5-.4 1.2-.2 1.6.3.4.5.2 1.2-.3 1.6-1.1.8-3.5 2.1-6.7 2.1h-.3z"/><path id="XMLID_2160_" class="st3" d="M277 249.6c-3.3 0-5.7-1.3-6.9-2.1-.5-.4-.7-1.1-.3-1.6.4-.5 1.1-.7 1.6-.3 1 .7 3 1.8 5.8 1.7 2.6 0 4.5-1.1 5.5-1.7.5-.4 1.2-.2 1.6.3.4.5.2 1.2-.3 1.6-1.1.8-3.5 2.1-6.7 2.1h-.3z"/><path id="XMLID_2159_" class="st3" d="M234.4 247.7c-3.3 0-5.7-1.3-6.9-2.1-.5-.4-.7-1.1-.3-1.6.4-.5 1.1-.7 1.6-.3 1 .7 3 1.8 5.8 1.7 2.6 0 4.5-1.1 5.5-1.7.5-.4 1.2-.2 1.6.3.4.5.2 1.2-.3 1.6-1.1.8-3.5 2.1-6.7 2.1h-.3z"/><path class="st9" d="M354.4 209.3c.5-2.4.9-4.9 1.2-7.5 1.8-16.1-1.7-28.9-4-35.5-3-6-9.3-9.4-15.4-8.4-1.6.3-3.1.8-4.4 1.6-16.6 20.6-45.2 17.5-76.8 17.5-32.6 0-60.4 2.3-76.7-19.3v.7c-.6-.2-1.3-.4-1.9-.5-6-1-12.4 2.3-15.4 8.4-2.3 6.6-5.9 19.4-4 35.5.3 2.7.7 5.3 1.3 7.7h21.5v7.4c.3 4.7.7 9.4 1.1 13.9 0 6.6 2.7 12.5 7 16.8 6.8 6.8 15.2 7 16.8 7 16.3 1.7 34.5 2.7 54.2 2.6 17.2-.1 33.1-1.1 47.7-2.6 6.6 0 12.5-2.7 16.8-7 6.8-6.8 7-15.2 7-16.8.4-7.9.8-16 1-24.2.3.9.5 1.7.8 2.5h22.2z"/><path id="XMLID_2149_" class="st10" d="M224.8 74c-5.2-2.5-6.7-.1-1.8 2.3 5.1 3.2 14.2 9.8 21.5 21.5 6.3 10.1 10.8 23.2 11.8 27.1-.6-6-2.5-17.4-10-29.3-7.4-11.8-16.5-18.4-21.5-21.6z"/><path id="XMLID_2148_" class="st10" d="M289.5 71.3c5.2-2.5 6.7-.1 1.8 2.3-5.1 3.2-14.2 9.8-21.5 21.5-6.3 10.1-10.8 23.2-11.8 27.1.6-6 2.5-17.4 10-29.3 7.4-11.8 16.5-18.5 21.5-21.6z"/><path class="st5" d="M269.7 223.3H243c-5.3-.7-9.3-5.9-9.6-12-.3-6.6 3.9-12.6 9.6-13.3h26.6c5.4.8 9.4 6.4 9.3 12.9 0 6.3-4 11.7-9.2 12.4z"/><path class="st5" d="M263.4 216.6c-2.8 0-5.3-.1-7.4-.3l.6-7.5c10.8.9 31.9.4 51.3-12.6 13.4-8.9 24.1-22.2 30.3-37.6 6.8-16.8 7.6-34.5 2.4-51.2-5.2-16.5-16.1-31.1-30.7-40.9-14.7-9.9-32.5-14.7-50.1-13.4l-.5-7.5c19.3-1.4 38.8 3.9 54.9 14.7 16 10.8 28 26.8 33.7 44.9 5.8 18.4 4.9 37.9-2.6 56.2-6.8 16.8-18.5 31.3-33.1 41-17.6 11.7-36.1 14.2-48.8 14.2z"/><circle class="st11" cx="256" cy="210.7" r="9.1"/><path class="st5" d="M267.6 53c-.4.5-3.5 4-8.7 4-5.2 0-8.3-3.5-8.8-4v-8.8c1.6-1.6 4.8-2.7 8.3-2.7 3.8-.1 7.4 1 9.1 2.7.1 3 .1 5.9.1 8.8z"/><path class="st12" d="M258.5 41.5c-3.5.1-6.7 1.1-8.3 2.7v.8c2.2 1.1 5.2 1.7 8.5 1.7 3.6 0 6.7-.7 8.9-1.9v-.6c-1.7-1.7-5.3-2.8-9.1-2.7z"/><path id="XMLID_2166_" class="st13" d="M252.3 121.7c6 16 9.6 48.8-15 64-21.8 13.5-50.5 6.8-64-15-15-24.3 1.4-51.9 15-64 3.2-2.8 20.4-18.1 39.3-12.3 16.3 4.9 22.7 21.9 24.7 27.3z"/><path id="XMLID_2165_" class="st13" d="M260.7 123.6c-6 16-9.6 48.8 15 64 21.8 13.5 50.5 6.8 64-15 15-24.3-1.4-51.9-15-64-3.2-2.8-20.4-18.1-39.3-12.3-16.3 4.9-22.7 21.9-24.7 27.3z"/><g id="XMLID_2156_"><ellipse id="XMLID_2158_" class="st14" cx="214" cy="144.6" rx="12.2" ry="20.6"/><path id="XMLID_2157_" class="st15" d="M219.1 144.2c-2.4 0-4.4-3.2-4.4-7.2 0-1.7.4-3.3 1-4.5-.6-.3-1.3-.4-2-.4-4.4 0-8 5.9-8 13.1 0 7.3 3.6 13.1 8 13.1s8-5.9 8-13.1c0-.8 0-1.5-.1-2.3-.7.8-1.6 1.3-2.5 1.3z"/></g><g id="XMLID_2153_"><ellipse id="XMLID_2155_" class="st14" cx="298.2" cy="145.9" rx="12.2" ry="20.6"/><path id="XMLID_2154_" class="st15" d="M303.1 144.7c-2.4 0-4.4-3.2-4.4-7.2 0-1.7.4-3.3 1-4.5-.6-.3-1.3-.4-2-.4-4.4 0-8 5.9-8 13.1 0 7.3 3.6 13.1 8 13.1s8-5.9 8-13.1c0-.8 0-1.5-.1-2.3-.7.9-1.5 1.3-2.5 1.3z"/></g><g id="XMLID_2150_"><path id="XMLID_2152_" class="st16" d="M276.5 185.9l-20.2 26.6-20.1-26.6 20.1-20.1z"/><path id="XMLID_2151_" class="st17" d="M276.5 186l-20.2 26.6v-46.7z"/></g><path class="st18" d="M324.7 106.6c-2.4-2.1-13.1-11.6-26.5-13.3V93H220c-15.8-.5-29 11.2-31.7 13.6-13.6 12.1-30.1 39.7-15 64 13.5 21.8 42.2 28.6 64 15 13.2-8.2 18.3-21.4 19.3-34.4 1 13 6 26.2 19.3 34.4 21.8 13.5 50.5 6.8 64-15 14.9-24.2-1.5-51.8-15.2-64z"/><path class="st19" d="M300.2 198.8c-9.5 0-19-2.5-27.6-7.9-6.9-4.3-12.3-10-16-17-3.8 7-9.1 12.7-16 17-8.6 5.3-18.2 7.9-27.6 7.9-17.6 0-34.9-8.8-44.8-24.9-16.8-27.2.5-57.9 16.2-71.9 11.2-10 23.8-15.4 35.3-15.2h78.7c1 0 1.9.2 2.7.6 9.4 1.6 19.1 6.7 28 14.6 15.7 14 33 44.7 16.2 71.9a53.36 53.36 0 0 1-45.1 24.9zm-43.7-53.6c3.2 0 5.9 2.5 6.1 5.7 1 13.5 6.5 23.5 16.4 29.6 18.9 11.7 43.8 5.9 55.5-13.1 5.7-9.2 6.6-19.8 2.6-31.3-3.1-9.1-9.3-18.4-16.5-24.8-7.5-6.7-15.8-10.9-23.2-11.8-.4 0-.7-.1-1-.2h-76.6c-8.6-.3-18.3 4-27.4 12-7.2 6.4-13.4 15.7-16.5 24.8-4 11.5-3.1 22.1 2.6 31.3 11.7 18.9 36.6 24.8 55.5 13.1 9.8-6.1 15.4-16.1 16.4-29.6.2-3.2 2.9-5.7 6.1-5.7z"/><path class="st5" d="M180.5 228.6c0 1.8.1 3.9.5 6.1l.6 2.7c22.2 3.2 48 5.6 76.7 5.6 27.6 0 51.8-1.8 70.7-4.7.4-1.2.7-2.6 1-4.1.4-2.1.5-4 .5-5.6-22.2 2.9-47.7 4.9-75.7 4.9-26.7 0-51.6-1.8-74.3-4.9z"/><path class="st2" d="M198.1 245.1c-3 0-5.4-2.4-5.4-5.4v-8.8c0-3 2.4-5.4 5.4-5.4 3 0 5.4 2.4 5.4 5.4v8.8c.1 2.9-2.4 5.4-5.4 5.4zm17.2.7c-3 0-5.4-2.4-5.4-5.4v-8.8c0-3 2.4-5.4 5.4-5.4 3 0 5.4 2.4 5.4 5.4v8.8c0 2.9-2.4 5.4-5.4 5.4zm82.9 0c-3 0-5.4-2.4-5.4-5.4v-8.8c0-3 2.4-5.4 5.4-5.4 3 0 5.4 2.4 5.4 5.4v8.8c0 2.9-2.4 5.4-5.4 5.4z"/><path class="st5" d="M265.3 247.5h-19c-2.9 0-5.2-2.3-5.2-5.2v-9.6c0-2.9 2.3-5.2 5.2-5.2h19c2.9 0 5.2 2.3 5.2 5.2v9.6c.1 2.9-2.3 5.2-5.2 5.2z"/></svg>