<svg id="Layer_1" xmlns="http://www.w3.org/2000/svg" viewBox="0 0 56.7 56.7"><style>.st0{fill:#f7f7f7}</style><path class="st0" d="M28.4 4.5C14.6 4.5 3.5 15.6 3.5 29.4s11.1 24.8 24.8 24.8c13.7 0 24.8-11.1 24.8-24.8S42.1 4.5 28.4 4.5zM16 16.6c0-.3 0-1.7 1.2-2.9.2-.2.5-.4.8-.6 0-.1 0-.1.1-.2.5-1.2 0-2.3.5-2.8.6 0 2.5.3 3.5.8.7.4 1.3.8 1.6 1.1.2 0 .5 0 .8-.1-.5-.5-1-.8-1.4-1-.8-.4-.6-.8.3-.4.5.3 1.1.7 1.8 1.4.3 0 .7 0 1-.1l-3.4-3c.8.7 2.1 1.5 3.7 2.1.5.2 1 .4 1.5.5l-3-2.6c.8.7 2.1 1.5 3.7 2.1.8.3 1.6.6 2.3.8.5 0 .9 0 1.4.1.9-.9 1.7-1.5 2.3-1.9.9-.4 1.2 0 .3.4-.5.3-1.2.8-1.9 1.5.5 0 .9.1 1.4.1.4-.3.8-.7 1.5-1 1-.5 2.9-.8 3.5-.8.4.5 0 1.6.5 2.8 0 .1.1.2.1.2.1.1.3.2.4.3.6.6 1 1.3 1.1 2.2v1.6c-.3-.3-.6-.7-.9-.9-.5-.5-3.5-3.1-6.8-2.1-2.8.9-3.9 3.8-4.3 4.7-.3.9-.6 2-.7 3.3-.1-1.4-.4-2.7-.7-3.6-.3-.9-1.4-3.9-4.3-4.7-3.3-1-6.2 1.6-6.8 2.1-.4.3-.7.7-1.1 1.2-.1-.1-.1-.3 0-.6zm20.8 6.2c.2 0 .3-.1.4-.2v.4c0 1.3-.6 2.3-1.4 2.3-.8 0-1.4-1-1.4-2.3 0-1.3.6-2.3 1.4-2.3.1 0 .2 0 .3.1 0 .2-.1.5-.1.8 0 .7.4 1.2.8 1.2zm-7.4 4.4l-.7-.7-.9.9c.5-1 .8-2.1.9-3.3.1 1.1.3 2.1.7 3.1zm-7.1-4.5c.2 0 .3-.1.4-.2v.4c0 1.3-.6 2.3-1.4 2.3-.8 0-1.4-1-1.4-2.3 0-1.3.6-2.3 1.4-2.3.1 0 .2 0 .3.1-.1.2-.2.5-.2.8.1.7.5 1.2.9 1.2zm22.9 10.5c-.3 2.8-1.4 4.8-2.1 5.8-.5-1-1.1-2.3-1.6-3.7 0 .7-.1 1.4-.1 2.2 0 .2 0 .9-.4 1.8-.2.4-.4.7-.8 1.1-.7.7-1.7 1.2-2.9 1.2-.4 0-.7.1-1.1.1-1.9.2-3.9.3-6 .4v4.5c.6-.3 1.5-.2 2.1.4.7.7.1 2.7.1 2.4 0-.2-.3-.5-.7-.7 0 .7-.2 1.4-.2 1.2 0-.6-3.1-1.9-2.5-2.5.2-.2.4-.3.6-.4v-5h-1.5v4.7c.2.1.4.2.6.4.6.6-2.5 1.9-2.5 2.5 0 .2-.2-.5-.2-1.2-.4.3-.7.5-.7.7 0 .3-.6-1.7.1-2.4.6-.6 1.4-.7 2.1-.4V42c-2.2 0-4.2-.1-6.1-.3v-.1c-.4 0-.7-.1-1-.1-.3 0-1.7 0-2.9-1.2-.3-.3-.5-.6-.7-1-.3-.6-.5-1.2-.5-1.9-.1-1.3-.2-2.7-.3-4.1-.6 2-1.4 3.7-2.1 5.1-.6-1-1.8-3-2.1-5.8-.3-2.7.3-4.9.7-6 .3-.6.8-1.1 1.4-1.3.2.7.4 1.4.8 2C17 31 21.8 32.2 25.6 30l3.4 4.5 3.3-4.3h.1c3.8 2.3 8.7 1.2 11-2.6.3-.5.5-.9.7-1.4.3.2.6.5.7.9.1 1.2.7 3.4.4 6.1z"/></svg>
